<svg width="132" height="10" viewBox="0 0 132 10" fill="none" xmlns="http://www.w3.org/2000/svg">
<path d="M2.28835 5.13319C2.28835 4.6758 2.40057 4.25819 2.625 3.88035C2.84943 3.50251 3.14915 3.20279 3.52415 2.9812C3.90199 2.75677 4.3196 2.64455 4.77699 2.64455C5.17472 2.64455 5.54261 2.7312 5.88068 2.9045C6.21875 3.07495 6.49858 3.30933 6.72017 3.60762C6.94176 3.90592 7.0767 4.24114 7.125 4.6133H6.01705C5.96591 4.3491 5.82102 4.13319 5.58239 3.96558C5.34659 3.79512 5.07813 3.70989 4.77699 3.70989C4.51563 3.70989 4.27699 3.77381 4.06108 3.90166C3.84517 4.0295 3.6733 4.20137 3.54545 4.41728C3.41761 4.63035 3.35369 4.86899 3.35369 5.13319C3.35369 5.39455 3.41761 5.63319 3.54545 5.8491C3.6733 6.06501 3.84517 6.23688 4.06108 6.36472C4.27699 6.49256 4.51563 6.55649 4.77699 6.55649C5.07813 6.55649 5.33523 6.47268 5.5483 6.30506C5.76136 6.13461 5.89489 5.91728 5.94886 5.65308H7.05682C7.00852 6.02524 6.87926 6.36046 6.66903 6.65876C6.45881 6.95705 6.19034 7.19285 5.86364 7.36614C5.53693 7.5366 5.17472 7.62183 4.77699 7.62183C4.3196 7.62183 3.90199 7.51103 3.52415 7.28944C3.14915 7.06501 2.84943 6.76387 2.625 6.38603C2.40057 6.00819 2.28835 5.59058 2.28835 5.13319ZM4.73864 9.63319C4.11932 9.63319 3.53693 9.51671 2.99148 9.28376C2.44886 9.0508 1.97017 8.72836 1.5554 8.31643C1.14347 7.90166 0.819602 7.42296 0.583807 6.88035C0.350852 6.33774 0.235795 5.75535 0.238636 5.13319C0.241477 4.51103 0.359375 3.92864 0.59233 3.38603C0.828125 2.84342 1.15199 2.36614 1.56392 1.95421C1.97585 1.53944 2.45313 1.21558 2.99574 0.982621C3.53835 0.749667 4.11932 0.63319 4.73864 0.63319C5.3608 0.63319 5.94318 0.749667 6.4858 0.982621C7.03125 1.21558 7.50852 1.53944 7.91761 1.95421C8.32955 2.36614 8.65199 2.84342 8.88494 3.38603C9.1179 3.92864 9.2358 4.51103 9.23864 5.13319C9.24148 5.75535 9.12642 6.33774 8.89347 6.88035C8.66051 7.42296 8.33807 7.90166 7.92614 8.31643C7.5142 8.72836 7.03551 9.0508 6.49006 9.28376C5.9446 9.51671 5.3608 9.63319 4.73864 9.63319ZM4.73864 8.49967C5.20455 8.49967 5.64205 8.41302 6.05114 8.23972C6.46023 8.06643 6.81818 7.82637 7.125 7.51955C7.43466 7.20989 7.67614 6.85194 7.84943 6.44569C8.02273 6.0366 8.10795 5.60052 8.10511 5.13745C8.10511 4.67154 8.01705 4.23404 7.84091 3.82495C7.66761 3.41586 7.42614 3.05791 7.11648 2.75109C6.80966 2.44143 6.45312 2.19995 6.04688 2.02666C5.64062 1.85336 5.20455 1.76671 4.73864 1.76671C4.27557 1.76671 3.84091 1.85336 3.43466 2.02666C3.02841 2.19995 2.67045 2.44143 2.3608 2.75109C2.05398 3.06075 1.8125 3.42012 1.63636 3.82921C1.46023 4.23546 1.37216 4.67154 1.37216 5.13745C1.36932 5.59768 1.45455 6.03234 1.62784 6.44143C1.80398 6.84768 2.04545 7.20563 2.35227 7.51529C2.66193 7.82211 3.01989 8.06359 3.42614 8.23972C3.83523 8.41302 4.27273 8.49967 4.73864 8.49967ZM14.2457 9.49683V8.54228L17.1989 5.48262C17.5142 5.15024 17.7741 4.85904 17.9787 4.60904C18.1861 4.3562 18.3409 4.11614 18.4432 3.88887C18.5455 3.6616 18.5966 3.42012 18.5966 3.16444C18.5966 2.87467 18.5284 2.62467 18.392 2.41444C18.2557 2.20137 18.0696 2.03802 17.8338 1.92438C17.598 1.80791 17.3324 1.74967 17.0369 1.74967C16.7244 1.74967 16.4517 1.81359 16.2188 1.94143C15.9858 2.06927 15.8068 2.24967 15.6818 2.48262C15.5568 2.71558 15.4943 2.9883 15.4943 3.3008H14.2372C14.2372 2.76955 14.3594 2.30506 14.6037 1.90734C14.848 1.50961 15.1832 1.20137 15.6094 0.982621C16.0355 0.76103 16.5199 0.650235 17.0625 0.650235C17.6108 0.650235 18.0938 0.75961 18.5114 0.97836C18.9318 1.19427 19.2599 1.48972 19.4957 1.86472C19.7315 2.23688 19.8494 2.65734 19.8494 3.12609C19.8494 3.44995 19.7884 3.76671 19.6662 4.07637C19.5469 4.38603 19.3381 4.7312 19.0398 5.11188C18.7415 5.48972 18.3267 5.94853 17.7955 6.4883L16.0611 8.30364V8.36756H19.9901V9.49683H14.2457ZM24.6435 9.64171C23.9702 9.63887 23.3949 9.46131 22.9176 9.10904C22.4403 8.75677 22.0753 8.24399 21.8224 7.57069C21.5696 6.89739 21.4432 6.08631 21.4432 5.13745C21.4432 4.19143 21.5696 3.38319 21.8224 2.71273C22.0781 2.04228 22.4446 1.53092 22.9219 1.17864C23.402 0.826371 23.9759 0.650235 24.6435 0.650235C25.3111 0.650235 25.8835 0.827792 26.3608 1.18291C26.8381 1.53518 27.2031 2.04654 27.456 2.717C27.7116 3.38461 27.8395 4.19143 27.8395 5.13745C27.8395 6.08916 27.7131 6.90166 27.4602 7.57495C27.2074 8.24541 26.8423 8.75819 26.3651 9.1133C25.8878 9.46558 25.3139 9.64171 24.6435 9.64171ZM24.6435 8.50393C25.2344 8.50393 25.696 8.21558 26.0284 7.63887C26.3636 7.06217 26.5312 6.22836 26.5312 5.13745C26.5312 4.41302 26.4545 3.8008 26.3011 3.3008C26.1506 2.79796 25.9332 2.41728 25.6491 2.15876C25.3679 1.89739 25.0327 1.76671 24.6435 1.76671C24.0554 1.76671 23.5938 2.05648 23.2585 2.63603C22.9233 3.21558 22.7543 4.04938 22.7514 5.13745C22.7514 5.86472 22.8267 6.47978 22.9773 6.98262C23.1307 7.48262 23.348 7.86188 23.6293 8.12041C23.9105 8.37609 24.2486 8.50393 24.6435 8.50393ZM29.3512 9.49683V8.54228L32.3043 5.48262C32.6197 5.15024 32.8796 4.85904 33.0842 4.60904C33.2915 4.3562 33.4464 4.11614 33.5487 3.88887C33.6509 3.6616 33.7021 3.42012 33.7021 3.16444C33.7021 2.87467 33.6339 2.62467 33.4975 2.41444C33.3612 2.20137 33.1751 2.03802 32.9393 1.92438C32.7035 1.80791 32.4379 1.74967 32.1424 1.74967C31.8299 1.74967 31.5572 1.81359 31.3242 1.94143C31.0913 2.06927 30.9123 2.24967 30.7873 2.48262C30.6623 2.71558 30.5998 2.9883 30.5998 3.3008H29.3427C29.3427 2.76955 29.4648 2.30506 29.7092 1.90734C29.9535 1.50961 30.2887 1.20137 30.7148 0.982621C31.141 0.76103 31.6254 0.650235 32.168 0.650235C32.7163 0.650235 33.1992 0.75961 33.6168 0.97836C34.0373 1.19427 34.3654 1.48972 34.6012 1.86472C34.837 2.23688 34.9549 2.65734 34.9549 3.12609C34.9549 3.44995 34.8938 3.76671 34.7717 4.07637C34.6523 4.38603 34.4435 4.7312 34.1452 5.11188C33.8469 5.48972 33.4322 5.94853 32.9009 6.4883L31.1665 8.30364V8.36756H35.0955V9.49683H29.3512ZM40.0217 0.769553V9.49683H38.7006V2.09058H38.6495L36.5614 3.45421V2.19285L38.739 0.769553H40.0217ZM45.6776 9.49683V0.769553H48.7884C49.4645 0.769553 50.0256 0.88603 50.4716 1.11898C50.9205 1.35194 51.2557 1.67438 51.4773 2.08631C51.6989 2.49541 51.8097 2.96842 51.8097 3.50535C51.8097 4.03944 51.6974 4.50961 51.473 4.91586C51.2514 5.31927 50.9162 5.63319 50.4673 5.85762C50.0213 6.08205 49.4602 6.19427 48.7841 6.19427H46.4276V5.06075H48.6648C49.0909 5.06075 49.4375 4.99967 49.7045 4.87751C49.9744 4.75535 50.1719 4.57779 50.2969 4.34484C50.4219 4.11188 50.4844 3.83205 50.4844 3.50535C50.4844 3.1758 50.4205 2.89029 50.2926 2.64881C50.1676 2.40734 49.9702 2.22268 49.7003 2.09484C49.4332 1.96416 49.0824 1.89881 48.6477 1.89881H46.9943V9.49683H45.6776ZM49.9858 5.55933L52.142 9.49683H50.642L48.5284 5.55933H49.9858ZM54.3281 0.769553L56.4162 4.18291H56.4844L58.5724 0.769553H60.098L57.3793 5.13319L60.1151 9.49683H58.581L56.4844 6.13035H56.4162L54.3196 9.49683H52.7855L55.5682 5.13319L52.8026 0.769553H54.3281ZM63.4123 9.62467C62.8839 9.62467 62.4123 9.48972 61.9975 9.21984C61.5856 8.94711 61.2617 8.55933 61.0259 8.05649C60.793 7.5508 60.6765 6.94427 60.6765 6.23688C60.6765 5.5295 60.7944 4.92438 61.0302 4.42154C61.2688 3.9187 61.5955 3.53376 62.0103 3.26671C62.4251 2.99967 62.8952 2.86614 63.4208 2.86614C63.8271 2.86614 64.1538 2.93433 64.4009 3.07069C64.6509 3.20421 64.8441 3.36046 64.9805 3.53944C65.1197 3.71842 65.2276 3.87609 65.3043 4.01245H65.381V0.769553H66.6552V9.49683H65.4109V8.47836H65.3043C65.2276 8.61756 65.1168 8.77666 64.9719 8.95563C64.8299 9.13461 64.6339 9.29086 64.3839 9.42438C64.1339 9.55791 63.81 9.62467 63.4123 9.62467ZM63.6935 8.53802C64.06 8.53802 64.3697 8.44143 64.6225 8.24825C64.8782 8.05222 65.0714 7.78092 65.2021 7.43433C65.3356 7.08774 65.4023 6.68433 65.4023 6.2241C65.4023 5.76955 65.337 5.37183 65.2063 5.03092C65.0756 4.69001 64.8839 4.42438 64.631 4.23404C64.3782 4.0437 64.0657 3.94853 63.6935 3.94853C63.31 3.94853 62.9904 4.04796 62.7347 4.24683C62.479 4.44569 62.2859 4.717 62.1552 5.06075C62.0273 5.4045 61.9634 5.79228 61.9634 6.2241C61.9634 6.6616 62.0288 7.05506 62.1594 7.4045C62.2901 7.75393 62.4833 8.03092 62.739 8.23546C62.9975 8.43717 63.3157 8.53802 63.6935 8.53802ZM71.2947 9.62893C70.6499 9.62893 70.0945 9.49114 69.6286 9.21558C69.1655 8.93717 68.8075 8.54654 68.5547 8.0437C68.3047 7.53802 68.1797 6.94569 68.1797 6.26671C68.1797 5.59626 68.3047 5.00535 68.5547 4.49398C68.8075 3.98262 69.1598 3.58347 69.6115 3.29654C70.0661 3.00961 70.5973 2.86614 71.2053 2.86614C71.5746 2.86614 71.9325 2.92722 72.2791 3.04938C72.6257 3.17154 72.9368 3.3633 73.2124 3.62467C73.4879 3.88603 73.7053 4.22552 73.8643 4.64313C74.0234 5.05791 74.103 5.56217 74.103 6.15592V6.60762H68.8999V5.65308H72.8544C72.8544 5.31785 72.7862 5.02097 72.6499 4.76245C72.5135 4.50109 72.3217 4.29512 72.0746 4.14455C71.8303 3.99399 71.5433 3.9187 71.2138 3.9187C70.8558 3.9187 70.5433 4.00677 70.2763 4.18291C70.0121 4.3562 69.8075 4.58347 69.6626 4.86472C69.5206 5.14313 69.4496 5.44569 69.4496 5.77239V6.51813C69.4496 6.95563 69.5263 7.32779 69.6797 7.63461C69.8359 7.94143 70.0533 8.1758 70.3317 8.33774C70.6101 8.49683 70.9354 8.57637 71.3075 8.57637C71.549 8.57637 71.7692 8.54228 71.968 8.4741C72.1669 8.40308 72.3388 8.29796 72.4837 8.15876C72.6286 8.01955 72.7393 7.84768 72.8161 7.64313L74.022 7.86046C73.9254 8.21558 73.7521 8.52666 73.5021 8.7937C73.255 9.05791 72.9439 9.26387 72.5689 9.4116C72.1967 9.55649 71.772 9.62893 71.2947 9.62893ZM76.7908 0.769553V9.49683H75.5167V0.769553H76.7908ZM78.505 9.49683V2.95137H79.7791V9.49683H78.505ZM79.1484 1.94143C78.9268 1.94143 78.7365 1.86756 78.5774 1.71984C78.4212 1.56927 78.343 1.39029 78.343 1.18291C78.343 0.972678 78.4212 0.793701 78.5774 0.645973C78.7365 0.495405 78.9268 0.420121 79.1484 0.420121C79.37 0.420121 79.5589 0.495405 79.7152 0.645973C79.8743 0.793701 79.9538 0.972678 79.9538 1.18291C79.9538 1.39029 79.8743 1.56927 79.7152 1.71984C79.5589 1.86756 79.37 1.94143 79.1484 1.94143ZM87.0927 2.95137L84.7191 9.49683H83.3555L80.9776 2.95137H82.3455L84.0032 7.9883H84.0714L85.7248 2.95137H87.0927ZM90.8885 9.62893C90.2436 9.62893 89.6882 9.49114 89.2223 9.21558C88.7592 8.93717 88.4013 8.54654 88.1484 8.0437C87.8984 7.53802 87.7734 6.94569 87.7734 6.26671C87.7734 5.59626 87.8984 5.00535 88.1484 4.49398C88.4013 3.98262 88.7536 3.58347 89.2053 3.29654C89.6598 3.00961 90.1911 2.86614 90.799 2.86614C91.1683 2.86614 91.5263 2.92722 91.8729 3.04938C92.2195 3.17154 92.5305 3.3633 92.8061 3.62467C93.0817 3.88603 93.299 4.22552 93.4581 4.64313C93.6172 5.05791 93.6967 5.56217 93.6967 6.15592V6.60762H88.4936V5.65308H92.4482C92.4482 5.31785 92.38 5.02097 92.2436 4.76245C92.1072 4.50109 91.9155 4.29512 91.6683 4.14455C91.424 3.99399 91.1371 3.9187 90.8075 3.9187C90.4496 3.9187 90.1371 4.00677 89.87 4.18291C89.6058 4.3562 89.4013 4.58347 89.2564 4.86472C89.1143 5.14313 89.0433 5.44569 89.0433 5.77239V6.51813C89.0433 6.95563 89.12 7.32779 89.2734 7.63461C89.4297 7.94143 89.647 8.1758 89.9254 8.33774C90.2038 8.49683 90.5291 8.57637 90.9013 8.57637C91.1428 8.57637 91.3629 8.54228 91.5618 8.4741C91.7607 8.40308 91.9325 8.29796 92.0774 8.15876C92.2223 8.01955 92.3331 7.84768 92.4098 7.64313L93.6158 7.86046C93.5192 8.21558 93.3459 8.52666 93.0959 8.7937C92.8487 9.05791 92.5376 9.26387 92.1626 9.4116C91.7905 9.55649 91.3658 9.62893 90.8885 9.62893ZM95.1104 9.49683V2.95137H96.342V3.99114H96.4102C96.5295 3.63887 96.7397 3.36188 97.0408 3.16018C97.3448 2.95563 97.6886 2.85336 98.0721 2.85336C98.1516 2.85336 98.2454 2.8562 98.3533 2.86188C98.4641 2.86756 98.5508 2.87467 98.6133 2.88319V4.10194C98.5621 4.08774 98.4712 4.07211 98.3406 4.05506C98.2099 4.03518 98.0792 4.02523 97.9485 4.02523C97.6474 4.02523 97.3789 4.08916 97.1431 4.217C96.9102 4.342 96.7255 4.51671 96.5891 4.74114C96.4528 4.96274 96.3846 5.21558 96.3846 5.49967V9.49683H95.1104ZM101.932 9.62467C101.403 9.62467 100.932 9.48972 100.517 9.21984C100.105 8.94711 99.7813 8.55933 99.5455 8.05649C99.3125 7.5508 99.196 6.94427 99.196 6.23688C99.196 5.5295 99.3139 4.92438 99.5497 4.42154C99.7884 3.9187 100.115 3.53376 100.53 3.26671C100.945 2.99967 101.415 2.86614 101.94 2.86614C102.347 2.86614 102.673 2.93433 102.92 3.07069C103.17 3.20421 103.364 3.36046 103.5 3.53944C103.639 3.71842 103.747 3.87609 103.824 4.01245H103.901V0.769553H105.175V9.49683H103.93V8.47836H103.824C103.747 8.61756 103.636 8.77666 103.491 8.95563C103.349 9.13461 103.153 9.29086 102.903 9.42438C102.653 9.55791 102.33 9.62467 101.932 9.62467ZM102.213 8.53802C102.58 8.53802 102.889 8.44143 103.142 8.24825C103.398 8.05222 103.591 7.78092 103.722 7.43433C103.855 7.08774 103.922 6.68433 103.922 6.2241C103.922 5.76955 103.857 5.37183 103.726 5.03092C103.595 4.69001 103.403 4.42438 103.151 4.23404C102.898 4.0437 102.585 3.94853 102.213 3.94853C101.83 3.94853 101.51 4.04796 101.254 4.24683C100.999 4.44569 100.805 4.717 100.675 5.06075C100.547 5.4045 100.483 5.79228 100.483 6.2241C100.483 6.6616 100.548 7.05506 100.679 7.4045C100.81 7.75393 101.003 8.03092 101.259 8.23546C101.517 8.43717 101.835 8.53802 102.213 8.53802ZM108.267 5.61046V9.49683H106.993V2.95137H108.216V4.01671H108.297C108.448 3.67012 108.684 3.39171 109.005 3.18148C109.328 2.97126 109.736 2.86614 110.228 2.86614C110.674 2.86614 111.064 2.95989 111.4 3.14739C111.735 3.33205 111.995 3.60762 112.179 3.9741C112.364 4.34058 112.456 4.7937 112.456 5.33347V9.49683H111.182V5.48688C111.182 5.01245 111.059 4.64171 110.811 4.37467C110.564 4.10478 110.225 3.96984 109.793 3.96984C109.498 3.96984 109.235 4.03376 109.005 4.1616C108.777 4.28944 108.597 4.47694 108.463 4.7241C108.333 4.96842 108.267 5.26387 108.267 5.61046ZM116.922 9.62893C116.309 9.62893 115.773 9.4883 115.316 9.20705C114.858 8.9258 114.503 8.53234 114.25 8.02666C113.998 7.52097 113.871 6.93006 113.871 6.25393C113.871 5.57495 113.998 4.9812 114.25 4.47268C114.503 3.96416 114.858 3.56927 115.316 3.28802C115.773 3.00677 116.309 2.86614 116.922 2.86614C117.536 2.86614 118.071 3.00677 118.529 3.28802C118.986 3.56927 119.341 3.96416 119.594 4.47268C119.847 4.9812 119.973 5.57495 119.973 6.25393C119.973 6.93006 119.847 7.52097 119.594 8.02666C119.341 8.53234 118.986 8.9258 118.529 9.20705C118.071 9.4883 117.536 9.62893 116.922 9.62893ZM116.926 8.55933C117.324 8.55933 117.654 8.45421 117.915 8.24399C118.176 8.03376 118.37 7.75393 118.495 7.4045C118.623 7.05506 118.686 6.67012 118.686 6.24967C118.686 5.83205 118.623 5.44853 118.495 5.0991C118.37 4.74683 118.176 4.46416 117.915 4.25109C117.654 4.03802 117.324 3.93148 116.926 3.93148C116.526 3.93148 116.194 4.03802 115.929 4.25109C115.668 4.46416 115.473 4.74683 115.346 5.0991C115.221 5.44853 115.158 5.83205 115.158 6.24967C115.158 6.67012 115.221 7.05506 115.346 7.4045C115.473 7.75393 115.668 8.03376 115.929 8.24399C116.194 8.45421 116.526 8.55933 116.926 8.55933ZM122.615 9.49683L120.689 2.95137H122.006L123.289 7.75819H123.353L124.64 2.95137H125.956L127.235 7.73688H127.299L128.573 2.95137H129.89L127.968 9.49683H126.668L125.338 4.77097H125.24L123.911 9.49683H122.615ZM131.048 9.57779C130.815 9.57779 130.614 9.49541 130.447 9.33063C130.279 9.16302 130.195 8.96131 130.195 8.72552C130.195 8.49256 130.279 8.2937 130.447 8.12893C130.614 7.96131 130.815 7.87751 131.048 7.87751C131.281 7.87751 131.481 7.96131 131.648 8.12893C131.816 8.2937 131.9 8.49256 131.9 8.72552C131.9 8.88177 131.86 9.02524 131.781 9.15592C131.704 9.28376 131.602 9.38603 131.474 9.46274C131.346 9.53944 131.204 9.57779 131.048 9.57779Z" fill="#3B3B3B"/>
</svg>
